<svg id="Calque_1" data-name="Calque 1" xmlns="http://www.w3.org/2000/svg" viewBox="0 0 64 64"><title>application_icon</title><path d="M45.55,51.64a3.59,3.59,0,0,1-2.83-1.39L27.49,33.85a3.71,3.71,0,0,1-.75-3A3.6,3.6,0,0,1,30.26,28h6.89c3.68,0,5-2.32,5-4.29s-1.31-4.11-5-4.11H21.87V47.92a3.67,3.67,0,0,1-3.52,3.72A3.62,3.62,0,0,1,14.67,48V16a3.61,3.61,0,0,1,3.6-3.61H37.15c8,0,12.18,5.68,12.18,11.29a11.29,11.29,0,0,1-3.18,7.92,11.94,11.94,0,0,1-8.5,3.56L48.38,45.81a3.61,3.61,0,0,1-2.83,5.83Z" style="fill:#6639b7"/><path d="M54.36,6.18a3.47,3.47,0,0,1,3.46,3.45V21c1.06.14,2.12.3,3.16.52.68.14,1.36.24,2,.4l1,.24V9.63A9.63,9.63,0,0,0,54.36,0H27.56A27.27,27.27,0,0,0,24,6.18Z" style="fill:#0085ca"/><path d="M27.56,0H9.62A9.63,9.63,0,0,0,0,9.65v30.6A62.56,62.56,0,0,1,5.77,35l.4-.31v-25A3.47,3.47,0,0,1,9.63,6.18H24A27.27,27.27,0,0,1,27.56,0Z" style="fill:#34b233"/><path d="M54.37,57.84H34.49A25.27,25.27,0,0,0,38.24,64H54.38A9.62,9.62,0,0,0,64,54.36V24.86a61.84,61.84,0,0,0-6.16-1.05V54.36A3.48,3.48,0,0,1,54.37,57.84Z" style="fill:#cf0072"/><path d="M34.49,57.84H9.64a3.46,3.46,0,0,1-3.46-3.46V42A65.34,65.34,0,0,0,0,49v5.39A9.63,9.63,0,0,0,9.64,64h28.6A25.27,25.27,0,0,1,34.49,57.84Z" style="fill:#ff4500"/></svg>